<?xml version="1.0" encoding="UTF-8"?>
<!DOCTYPE svg PUBLIC "-//W3C//DTD SVG 1.1//EN" "http://www.w3.org/Graphics/SVG/1.1/DTD/svg11.dtd">
<svg xmlns="http://www.w3.org/2000/svg" version="1.1" width="1033px" height="657px" style="shape-rendering:geometricPrecision; text-rendering:geometricPrecision; image-rendering:optimizeQuality; fill-rule:evenodd; clip-rule:evenodd" xmlns:xlink="http://www.w3.org/1999/xlink">
<g><path style="opacity:0.008" fill="#030202" d="M 536.5,199.5 C 540.671,198.535 544.671,199.202 548.5,201.5C 546.167,201.5 543.833,201.5 541.5,201.5C 540.22,200.069 538.553,199.402 536.5,199.5 Z"/></g>
<g><path style="opacity:1" fill="#d6a440" d="M 498.5,199.5 C 509.167,199.5 519.833,199.5 530.5,199.5C 533.974,200.525 537.64,201.192 541.5,201.5C 543.5,202.167 545.5,202.833 547.5,203.5C 545.167,203.5 542.833,203.5 540.5,203.5C 532.051,201.081 523.385,200.081 514.5,200.5C 500.304,200.671 486.304,202.338 472.5,205.5C 476.802,203.297 481.469,201.964 486.5,201.5C 490.705,201.283 494.705,200.617 498.5,199.5 Z"/></g>
<g><path style="opacity:0.035" fill="#4a422a" d="M 530.5,199.5 C 532.167,199.5 533.833,199.5 535.5,199.5C 535.833,199.5 536.167,199.5 536.5,199.5C 538.553,199.402 540.22,200.069 541.5,201.5C 537.64,201.192 533.974,200.525 530.5,199.5 Z"/></g>
<g><path style="opacity:0.651" fill="#6f5d3c" d="M 498.5,199.5 C 494.705,200.617 490.705,201.283 486.5,201.5C 490.183,199.75 494.183,199.083 498.5,199.5 Z"/></g>
<g><path style="opacity:0.004" fill="#000000" d="M 552.5,201.5 C 551.761,201.631 551.094,201.464 550.5,201C 551.437,200.308 552.103,200.475 552.5,201.5 Z"/></g>
<g><path style="opacity:1" fill="#f59601" d="M 540.5,203.5 C 545.481,204.964 550.314,206.964 555,209.5C 556.388,208.446 557.888,208.28 559.5,209C 560.833,209.667 560.833,210.333 559.5,211C 560.5,211.333 561.5,211.667 562.5,212C 567.524,213.186 572.524,214.352 577.5,215.5C 581.751,217.425 585.417,220.092 588.5,223.5C 588.539,224.583 588.873,225.583 589.5,226.5C 592.194,228.537 594.861,230.537 597.5,232.5C 597.89,236.615 599.39,240.282 602,243.5C 602.499,249.157 602.666,254.824 602.5,260.5C 602.5,260.833 602.5,261.167 602.5,261.5C 601.325,261.281 600.325,261.614 599.5,262.5C 597.724,269.423 593.891,274.757 588,278.5C 587.506,280.134 587.34,281.801 587.5,283.5C 587.167,283.5 586.833,283.5 586.5,283.5C 583.475,284.725 580.475,285.225 577.5,285C 575.472,291.146 571.139,293.813 564.5,293C 563.111,295.239 561.444,297.072 559.5,298.5C 555.821,298.724 552.154,299.058 548.5,299.5C 548.83,282.658 548.497,265.992 547.5,249.5C 547.167,249.5 546.833,249.5 546.5,249.5C 544.91,247.179 542.577,246.179 539.5,246.5C 534.897,244.099 529.897,242.432 524.5,241.5C 523.653,240.034 522.32,239.2 520.5,239C 520.833,238.667 521.167,238.333 521.5,238C 515.06,237.77 508.727,236.937 502.5,235.5C 500.485,234.076 498.152,233.41 495.5,233.5C 490.59,230.853 485.59,228.353 480.5,226C 474.06,225.77 467.727,224.937 461.5,223.5C 459.833,223.5 458.167,223.5 456.5,223.5C 456.5,236.167 456.5,248.833 456.5,261.5C 453.381,262.317 450.381,263.317 447.5,264.5C 443.856,265.315 440.189,266.148 436.5,267C 433.926,269.747 430.926,270.247 427.5,268.5C 427.5,268.167 427.5,267.833 427.5,267.5C 426.787,263.368 426.12,259.201 425.5,255C 425.768,250.1 426.434,245.267 427.5,240.5C 427.5,240.167 427.5,239.833 427.5,239.5C 430.325,238.522 431.658,236.522 431.5,233.5C 432.822,233.33 433.989,233.663 435,234.5C 435.333,232.167 435.667,229.833 436,227.5C 438.755,224.917 441.255,222.251 443.5,219.5C 447.666,216.583 451.999,213.916 456.5,211.5C 458.905,211.134 461.238,210.467 463.5,209.5C 464.713,209.253 465.38,208.586 465.5,207.5C 467.701,206.434 470.035,205.767 472.5,205.5C 486.304,202.338 500.304,200.671 514.5,200.5C 523.385,200.081 532.051,201.081 540.5,203.5 Z"/></g>
<g><path style="opacity:0.009" fill="#211d16" d="M 535.5,199.5 C 533.833,199.5 532.167,199.5 530.5,199.5C 519.833,199.5 509.167,199.5 498.5,199.5C 494.183,199.083 490.183,199.75 486.5,201.5C 481.469,201.964 476.802,203.297 472.5,205.5C 470.035,205.767 467.701,206.434 465.5,207.5C 462.421,208.304 459.421,209.304 456.5,210.5C 457.122,208.544 458.455,207.211 460.5,206.5C 463.316,205.895 465.983,204.895 468.5,203.5C 469.803,204.718 470.803,204.385 471.5,202.5C 473.51,203.349 475.177,202.682 476.5,200.5C 477.167,200.833 477.833,201.167 478.5,201.5C 480.982,200.103 483.648,199.269 486.5,199C 503.005,198.172 519.339,198.338 535.5,199.5 Z"/></g>
<g><path style="opacity:0.998" fill="#e5971b" d="M 540.5,203.5 C 542.833,203.5 545.167,203.5 547.5,203.5C 558.298,205.76 568.298,209.76 577.5,215.5C 572.524,214.352 567.524,213.186 562.5,212C 561.5,211.667 560.5,211.333 559.5,211C 560.833,210.333 560.833,209.667 559.5,209C 557.888,208.28 556.388,208.446 555,209.5C 550.314,206.964 545.481,204.964 540.5,203.5 Z"/></g>
<g><path style="opacity:0.949" fill="#a68231" d="M 465.5,207.5 C 465.38,208.586 464.713,209.253 463.5,209.5C 461.238,210.467 458.905,211.134 456.5,211.5C 456.5,211.167 456.5,210.833 456.5,210.5C 459.421,209.304 462.421,208.304 465.5,207.5 Z"/></g>
<g><path style="opacity:0.014" fill="#1e1a12" d="M 456.5,210.5 C 456.5,210.833 456.5,211.167 456.5,211.5C 451.999,213.916 447.666,216.583 443.5,219.5C 438.869,222.464 434.869,226.131 431.5,230.5C 428.214,232.978 426.214,236.311 425.5,240.5C 424.833,240.833 424.167,241.167 423.5,241.5C 423.389,240.883 423.056,240.383 422.5,240C 426.888,231.191 433.721,223.358 443,216.5C 443.333,216.833 443.667,217.167 444,217.5C 447.385,213.071 451.551,210.738 456.5,210.5 Z"/></g>
<g><path style="opacity:0.8" fill="#0d0805" d="M 461.5,224.5 C 466.267,225.525 470.934,226.858 475.5,228.5C 473.735,229.461 471.735,229.795 469.5,229.5C 469.167,229.5 468.833,229.5 468.5,229.5C 468.389,228.883 468.056,228.383 467.5,228C 465.19,227.503 462.857,227.337 460.5,227.5C 460.172,238.014 460.506,248.347 461.5,258.5C 463.415,258.784 465.081,258.451 466.5,257.5C 467.167,257.5 467.833,257.5 468.5,257.5C 470.5,257.167 472.5,256.833 474.5,256.5C 474.5,271.167 474.5,285.833 474.5,300.5C 474.667,325.502 474.5,350.502 474,375.5C 468.593,376.473 463.093,376.807 457.5,376.5C 457.5,348.833 457.5,321.167 457.5,293.5C 457.5,284.167 457.5,274.833 457.5,265.5C 456.022,265.762 454.689,265.429 453.5,264.5C 454.77,263.712 455.77,262.712 456.5,261.5C 457.495,249.345 457.829,237.011 457.5,224.5C 458.833,224.5 460.167,224.5 461.5,224.5 Z M 462.5,327.5 C 462.334,318.494 462.5,309.494 463,300.5C 464.117,300.665 465.284,300.998 466.5,301.5C 467.218,310.842 467.885,320.175 468.5,329.5C 467.534,343.47 467.201,357.47 467.5,371.5C 466.167,371.5 464.833,371.5 463.5,371.5C 462.698,361.947 462.364,352.447 462.5,343C 463.67,338.036 464.337,333.203 464.5,328.5C 464.561,326.279 463.895,325.946 462.5,327.5 Z"/></g>
<g><path style="opacity:1" fill="#c37d10" d="M 461.5,224.5 C 461.5,224.167 461.5,223.833 461.5,223.5C 467.727,224.937 474.06,225.77 480.5,226C 485.59,228.353 490.59,230.853 495.5,233.5C 488.931,231.524 482.265,229.858 475.5,228.5C 470.934,226.858 466.267,225.525 461.5,224.5 Z"/></g>
<g><path style="opacity:0.996" fill="#d09736" d="M 588.5,223.5 C 592.522,225.522 595.522,228.522 597.5,232.5C 594.861,230.537 592.194,228.537 589.5,226.5C 588.873,225.583 588.539,224.583 588.5,223.5 Z"/></g>
<g><path style="opacity:1" fill="#f69601" d="M 480.5,233.5 C 485.049,234.463 489.383,235.796 493.5,237.5C 499.66,240.721 506.327,243.221 513.5,245C 514.992,247.449 517.159,247.949 520,246.5C 524.484,247.664 528.984,248.664 533.5,249.5C 534.167,249.5 534.833,249.5 535.5,249.5C 536.183,251.176 537.517,251.843 539.5,251.5C 539.5,268.833 539.5,286.167 539.5,303.5C 539.167,303.5 538.833,303.5 538.5,303.5C 522.831,304.734 507.164,304.734 491.5,303.5C 486.57,302.352 481.57,301.685 476.5,301.5C 476.829,286.324 476.496,271.324 475.5,256.5C 475.5,255.833 475.167,255.5 474.5,255.5C 473.866,254.053 472.699,253.387 471,253.5C 468.815,255.108 466.315,256.108 463.5,256.5C 463.059,247.724 463.559,239.058 465,230.5C 465.419,231.672 466.085,232.672 467,233.5C 471.39,233.142 475.89,233.142 480.5,233.5 Z"/></g>
<g><path style="opacity:1" fill="#e3981d" d="M 443.5,219.5 C 441.255,222.251 438.755,224.917 436,227.5C 435.667,229.833 435.333,232.167 435,234.5C 433.989,233.663 432.822,233.33 431.5,233.5C 431.658,236.522 430.325,238.522 427.5,239.5C 428.833,236.5 430.167,233.5 431.5,230.5C 434.869,226.131 438.869,222.464 443.5,219.5 Z"/></g>
<g><path style="opacity:1" fill="#ab6c14" d="M 495.5,233.5 C 498.152,233.41 500.485,234.076 502.5,235.5C 499.848,235.59 497.515,234.924 495.5,233.5 Z"/></g>
<g><path style="opacity:1" fill="#4d2a08" d="M 468.5,229.5 C 467.833,229.5 467.167,229.5 466.5,229.5C 465.081,228.549 463.415,228.216 461.5,228.5C 461.5,238.5 461.5,248.5 461.5,258.5C 460.506,248.347 460.172,238.014 460.5,227.5C 462.857,227.337 465.19,227.503 467.5,228C 468.056,228.383 468.389,228.883 468.5,229.5 Z"/></g>
<g><path style="opacity:1" fill="#b16f1c" d="M 466.5,229.5 C 465.167,229.5 463.833,229.5 462.5,229.5C 462.5,238.833 462.5,248.167 462.5,257.5C 463.833,257.5 465.167,257.5 466.5,257.5C 465.081,258.451 463.415,258.784 461.5,258.5C 461.5,248.5 461.5,238.5 461.5,228.5C 463.415,228.216 465.081,228.549 466.5,229.5 Z"/></g>
<g><path style="opacity:1" fill="#de8e13" d="M 466.5,229.5 C 467.167,229.5 467.833,229.5 468.5,229.5C 468.833,229.5 469.167,229.5 469.5,229.5C 473.167,230.833 476.833,232.167 480.5,233.5C 475.89,233.142 471.39,233.142 467,233.5C 466.085,232.672 465.419,231.672 465,230.5C 463.559,239.058 463.059,247.724 463.5,256.5C 466.315,256.108 468.815,255.108 471,253.5C 472.699,253.387 473.866,254.053 474.5,255.5C 471.99,255.054 469.99,255.72 468.5,257.5C 467.833,257.5 467.167,257.5 466.5,257.5C 465.167,257.5 463.833,257.5 462.5,257.5C 462.5,248.167 462.5,238.833 462.5,229.5C 463.833,229.5 465.167,229.5 466.5,229.5 Z"/></g>
<g><path style="opacity:1" fill="#3f200b" d="M 461.5,223.5 C 461.5,223.833 461.5,224.167 461.5,224.5C 460.167,224.5 458.833,224.5 457.5,224.5C 457.829,237.011 457.495,249.345 456.5,261.5C 456.5,248.833 456.5,236.167 456.5,223.5C 458.167,223.5 459.833,223.5 461.5,223.5 Z"/></g>
<g><path style="opacity:1" fill="#cc830e" d="M 502.5,235.5 C 508.727,236.937 515.06,237.77 521.5,238C 521.167,238.333 520.833,238.667 520.5,239C 522.32,239.2 523.653,240.034 524.5,241.5C 523.833,241.5 523.167,241.5 522.5,241.5C 515.529,240.117 508.862,238.117 502.5,235.5 Z"/></g>
<g><path style="opacity:0.004" fill="#000000" d="M 422.5,242.5 C 421.833,241.167 421.833,241.167 422.5,242.5 Z"/></g>
<g><path style="opacity:0.973" fill="#ba913f" d="M 431.5,230.5 C 430.167,233.5 428.833,236.5 427.5,239.5C 427.5,239.833 427.5,240.167 427.5,240.5C 426.833,241.167 426.167,241.833 425.5,242.5C 425.5,241.833 425.5,241.167 425.5,240.5C 426.214,236.311 428.214,232.978 431.5,230.5 Z"/></g>
<g><path style="opacity:1" fill="#2b1805" d="M 475.5,228.5 C 482.265,229.858 488.931,231.524 495.5,233.5C 497.515,234.924 499.848,235.59 502.5,235.5C 508.862,238.117 515.529,240.117 522.5,241.5C 527.847,243.924 533.513,245.591 539.5,246.5C 541.5,247.5 543.5,248.5 545.5,249.5C 544.167,249.5 542.833,249.5 541.5,249.5C 540.167,249.5 538.833,249.5 537.5,249.5C 536.833,249.5 536.167,249.5 535.5,249.5C 534.833,249.5 534.167,249.5 533.5,249.5C 529.146,247.235 524.479,245.569 519.5,244.5C 517.485,243.076 515.152,242.41 512.5,242.5C 506.303,240.367 499.969,238.7 493.5,237.5C 489.383,235.796 485.049,234.463 480.5,233.5C 476.833,232.167 473.167,230.833 469.5,229.5C 471.735,229.795 473.735,229.461 475.5,228.5 Z"/></g>
<g><path style="opacity:1" fill="#a26312" d="M 522.5,241.5 C 523.167,241.5 523.833,241.5 524.5,241.5C 529.897,242.432 534.897,244.099 539.5,246.5C 533.513,245.591 527.847,243.924 522.5,241.5 Z"/></g>
<g><path style="opacity:1" fill="#723f09" d="M 512.5,242.5 C 515.152,242.41 517.485,243.076 519.5,244.5C 516.848,244.59 514.515,243.924 512.5,242.5 Z"/></g>
<g><path style="opacity:0.004" fill="#000000" d="M 606.5,250.5 C 606.338,248.473 606.505,246.473 607,244.5C 607.789,246.712 607.622,248.712 606.5,250.5 Z"/></g>
<g><path style="opacity:1" fill="#db8c0f" d="M 493.5,237.5 C 499.969,238.7 506.303,240.367 512.5,242.5C 514.515,243.924 516.848,244.59 519.5,244.5C 524.479,245.569 529.146,247.235 533.5,249.5C 528.984,248.664 524.484,247.664 520,246.5C 517.159,247.949 514.992,247.449 513.5,245C 506.327,243.221 499.66,240.721 493.5,237.5 Z"/></g>
<g><path style="opacity:1" fill="#a05e0d" d="M 539.5,246.5 C 542.577,246.179 544.91,247.179 546.5,249.5C 546.167,249.5 545.833,249.5 545.5,249.5C 543.5,248.5 541.5,247.5 539.5,246.5 Z"/></g>
<g><path style="opacity:0.998" fill="#0c0b0a" d="M 541.5,249.5 C 542.833,249.5 544.167,249.5 545.5,249.5C 545.333,269.503 545.5,289.503 546,309.5C 550.934,310.144 555.767,310.81 560.5,311.5C 559.448,311.351 558.448,311.517 557.5,312C 572.528,311.809 587.528,310.976 602.5,309.5C 603.5,309.5 604.5,309.5 605.5,309.5C 605.5,331.833 605.5,354.167 605.5,376.5C 604.833,354.663 604.167,332.663 603.5,310.5C 602.205,311.098 600.872,311.598 599.5,312C 582.318,313.275 565.318,314.442 548.5,315.5C 549.503,334.153 549.836,352.987 549.5,372C 549.333,373.5 549.167,375 549,376.5C 548.329,377.252 547.496,377.586 546.5,377.5C 547.653,358.24 547.82,338.907 547,319.5C 546.667,338.167 546.333,356.833 546,375.5C 540.333,376.833 534.667,376.833 529,375.5C 528.179,354.094 528.346,332.76 529.5,311.5C 534.167,311.5 538.833,311.5 543.5,311.5C 543.599,308.763 543.265,306.096 542.5,303.5C 542.819,285.423 542.486,267.423 541.5,249.5 Z M 536.5,372.5 C 535.821,363.765 535.154,354.932 534.5,346C 534.12,341.435 534.787,336.935 536.5,332.5C 536.276,329.556 535.61,326.723 534.5,324C 534.918,321.237 535.584,318.57 536.5,316C 536.167,315.667 535.833,315.333 535.5,315C 537.167,314.333 538.833,314.333 540.5,315C 539.833,315.333 539.167,315.667 538.5,316C 538.477,322.094 538.811,328.094 539.5,334C 539.142,347.002 538.142,359.835 536.5,372.5 Z"/></g>
<g><path style="opacity:0.996" fill="#e29b27" d="M 427.5,240.5 C 426.434,245.267 425.768,250.1 425.5,255C 426.12,259.201 426.787,263.368 427.5,267.5C 425.871,265.142 424.705,262.476 424,259.5C 423.333,254.5 423.333,249.5 424,244.5C 424.278,243.584 424.778,242.918 425.5,242.5C 426.167,241.833 426.833,241.167 427.5,240.5 Z"/></g>
<g><path style="opacity:0.988" fill="#cd9d43" d="M 597.5,232.5 C 604.532,240.945 606.198,250.278 602.5,260.5C 602.666,254.824 602.499,249.157 602,243.5C 599.39,240.282 597.89,236.615 597.5,232.5 Z"/></g>
<g><path style="opacity:0.004" fill="#000000" d="M 606.5,253.5 C 607.833,254.167 607.833,254.167 606.5,253.5 Z"/></g>
<g><path style="opacity:0.125" fill="#2e2619" d="M 541.5,201.5 C 543.833,201.5 546.167,201.5 548.5,201.5C 549.961,202.686 551.295,202.686 552.5,201.5C 553.239,201.369 553.906,201.536 554.5,202C 553.304,202.654 553.304,203.154 554.5,203.5C 557.784,202.18 559.784,202.847 560.5,205.5C 561.842,204.098 562.676,204.431 563,206.5C 565.091,205.5 566.757,206.167 568,208.5C 568.333,208.167 568.667,207.833 569,207.5C 571.035,210.277 573.535,211.444 576.5,211C 577.126,211.75 577.626,212.584 578,213.5C 578.333,213.167 578.667,212.833 579,212.5C 584.409,216.23 589.576,220.396 594.5,225C 598.578,229.487 601.911,233.987 604.5,238.5C 604.291,239.086 603.957,239.586 603.5,240C 604.821,243.513 605.821,247.013 606.5,250.5C 606.5,251.5 606.5,252.5 606.5,253.5C 605.167,253.833 605.167,254.167 606.5,254.5C 606.121,258.015 605.121,261.348 603.5,264.5C 603.709,265.086 604.043,265.586 604.5,266C 599.964,273.546 594.464,280.379 588,286.5C 587.667,286.167 587.333,285.833 587,285.5C 581.849,291.263 576.016,295.263 569.5,297.5C 567.833,297.5 566.167,297.5 564.5,297.5C 572.588,294.09 579.921,289.424 586.5,283.5C 586.833,283.5 587.167,283.5 587.5,283.5C 587.833,283.5 588.167,283.5 588.5,283.5C 589.833,282.833 590.833,281.833 591.5,280.5C 594.42,275.732 597.586,271.066 601,266.5C 601.608,264.846 602.108,263.179 602.5,261.5C 602.5,261.167 602.5,260.833 602.5,260.5C 606.198,250.278 604.532,240.945 597.5,232.5C 595.522,228.522 592.522,225.522 588.5,223.5C 585.417,220.092 581.751,217.425 577.5,215.5C 568.298,209.76 558.298,205.76 547.5,203.5C 545.5,202.833 543.5,202.167 541.5,201.5 Z"/></g>
<g><path style="opacity:1" fill="#985a19" d="M 546.5,249.5 C 546.833,249.5 547.167,249.5 547.5,249.5C 547.5,266.833 547.5,284.167 547.5,301.5C 548.5,301.5 549.5,301.5 550.5,301.5C 549.739,302.391 548.739,303.058 547.5,303.5C 546.5,285.512 546.167,267.512 546.5,249.5 Z"/></g>
<g><path style="opacity:1" fill="#5b340a" d="M 537.5,249.5 C 538.833,249.5 540.167,249.5 541.5,249.5C 542.486,267.423 542.819,285.423 542.5,303.5C 542.167,303.5 541.833,303.5 541.5,303.5C 541.83,285.992 541.497,268.659 540.5,251.5C 539.5,250.833 538.5,250.167 537.5,249.5 Z"/></g>
<g><path style="opacity:1" fill="#4a2001" d="M 474.5,255.5 C 475.167,255.5 475.5,255.833 475.5,256.5C 475.5,271.167 475.5,285.833 475.5,300.5C 475.167,300.5 474.833,300.5 474.5,300.5C 474.5,285.833 474.5,271.167 474.5,256.5C 472.5,256.833 470.5,257.167 468.5,257.5C 469.99,255.72 471.99,255.054 474.5,255.5 Z"/></g>
<g><path style="opacity:1" fill="#df9113" d="M 535.5,249.5 C 536.167,249.5 536.833,249.5 537.5,249.5C 538.5,250.167 539.5,250.833 540.5,251.5C 540.83,269.008 540.497,286.341 539.5,303.5C 539.5,286.167 539.5,268.833 539.5,251.5C 537.517,251.843 536.183,251.176 535.5,249.5 Z"/></g>
<g><path style="opacity:0.192" fill="#3d3320" d="M 425.5,240.5 C 425.5,241.167 425.5,241.833 425.5,242.5C 424.778,242.918 424.278,243.584 424,244.5C 423.333,249.5 423.333,254.5 424,259.5C 424.705,262.476 425.871,265.142 427.5,267.5C 427.5,267.833 427.5,268.167 427.5,268.5C 427.5,268.833 427.5,269.167 427.5,269.5C 426.833,269.5 426.167,269.5 425.5,269.5C 424.71,268.206 423.71,267.039 422.5,266C 422.566,263.133 422.566,260.3 422.5,257.5C 421.16,256.312 420.493,254.812 420.5,253C 422.134,249.747 422.801,246.247 422.5,242.5C 423.167,242.5 423.5,242.167 423.5,241.5C 424.167,241.167 424.833,240.833 425.5,240.5 Z"/></g>
<g><path style="opacity:1" fill="#bb7b22" d="M 540.5,251.5 C 541.497,268.659 541.83,285.992 541.5,303.5C 540.791,304.404 539.791,304.737 538.5,304.5C 538.5,304.167 538.5,303.833 538.5,303.5C 538.833,303.5 539.167,303.5 539.5,303.5C 540.497,286.341 540.83,269.008 540.5,251.5 Z"/></g>
<g><path style="opacity:1" fill="#dc8e17" d="M 547.5,249.5 C 548.497,265.992 548.83,282.658 548.5,299.5C 552.154,299.058 555.821,298.724 559.5,298.5C 556.785,300.072 553.785,301.072 550.5,301.5C 549.5,301.5 548.5,301.5 547.5,301.5C 547.5,284.167 547.5,266.833 547.5,249.5 Z"/></g>
<g><path style="opacity:1" fill="#d08415" d="M 447.5,264.5 C 442.223,267.204 436.723,269.537 431,271.5C 429.697,271.022 428.531,270.355 427.5,269.5C 427.5,269.167 427.5,268.833 427.5,268.5C 430.926,270.247 433.926,269.747 436.5,267C 440.189,266.148 443.856,265.315 447.5,264.5 Z"/></g>
<g><path style="opacity:1" fill="#f09506" d="M 452.5,267.5 C 453.5,267.5 454.5,267.5 455.5,267.5C 455.666,275.84 455.5,284.173 455,292.5C 454.329,291.748 453.496,291.414 452.5,291.5C 451.833,291.5 451.167,291.5 450.5,291.5C 447.319,289.408 444.319,287.075 441.5,284.5C 440.416,282.568 439.083,280.735 437.5,279C 437.833,278.5 438.167,278 438.5,277.5C 441.213,278.771 443.213,277.938 444.5,275C 444.355,274.228 444.022,273.561 443.5,273C 445.319,272.26 446.652,271.093 447.5,269.5C 448.78,268.069 450.447,267.402 452.5,267.5 Z"/></g>
<g><path style="opacity:1" fill="#33200f" d="M 456.5,261.5 C 455.77,262.712 454.77,263.712 453.5,264.5C 454.689,265.429 456.022,265.762 457.5,265.5C 457.5,274.833 457.5,284.167 457.5,293.5C 457.167,293.5 456.833,293.5 456.5,293.5C 456.5,284.5 456.5,275.5 456.5,266.5C 454.901,266.232 453.568,266.566 452.5,267.5C 450.447,267.402 448.78,268.069 447.5,269.5C 442.572,270.128 437.905,271.628 433.5,274C 432.316,275.145 432.316,276.312 433.5,277.5C 431.824,276.817 431.157,275.483 431.5,273.5C 430.167,273.5 428.833,273.5 427.5,273.5C 427.5,272.167 427.5,270.833 427.5,269.5C 428.531,270.355 429.697,271.022 431,271.5C 436.723,269.537 442.223,267.204 447.5,264.5C 450.381,263.317 453.381,262.317 456.5,261.5 Z"/></g>
<g><path style="opacity:1" fill="#dc8e14" d="M 447.5,269.5 C 446.652,271.093 445.319,272.26 443.5,273C 444.022,273.561 444.355,274.228 444.5,275C 443.213,277.938 441.213,278.771 438.5,277.5C 438.167,278 437.833,278.5 437.5,279C 439.083,280.735 440.416,282.568 441.5,284.5C 438.19,282.854 435.523,280.52 433.5,277.5C 432.316,276.312 432.316,275.145 433.5,274C 437.905,271.628 442.572,270.128 447.5,269.5 Z"/></g>
<g><path style="opacity:1" fill="#db911d" d="M 466.5,261.5 C 467.5,261.5 468.5,261.5 469.5,261.5C 469.5,273.833 469.5,286.167 469.5,298.5C 469.5,299.167 469.167,299.5 468.5,299.5C 468.167,299.5 467.833,299.5 467.5,299.5C 466.329,298.655 464.995,297.989 463.5,297.5C 462.523,286.248 462.189,274.914 462.5,263.5C 463.287,261.896 464.62,261.229 466.5,261.5 Z"/></g>
<g><path style="opacity:1" fill="#f29705" d="M 464.5,262.5 C 465.833,262.5 467.167,262.5 468.5,262.5C 468.5,273.833 468.5,285.167 468.5,296.5C 466.856,296.714 465.356,296.38 464,295.5C 463.191,284.424 463.358,273.424 464.5,262.5 Z"/></g>
<g><path style="opacity:1" fill="#431f07" d="M 467.5,260.5 C 468.568,259.566 469.901,259.232 471.5,259.5C 471.5,272.833 471.5,286.167 471.5,299.5C 470.833,299.5 470.5,299.167 470.5,298.5C 470.5,285.833 470.5,273.167 470.5,260.5C 469.5,260.5 468.5,260.5 467.5,260.5 Z"/></g>
<g><path style="opacity:0.935" fill="#1e1d1b" d="M 425.5,269.5 C 426.167,269.5 426.833,269.5 427.5,269.5C 427.5,270.833 427.5,272.167 427.5,273.5C 428.833,273.5 430.167,273.5 431.5,273.5C 431.157,275.483 431.824,276.817 433.5,277.5C 435.523,280.52 438.19,282.854 441.5,284.5C 444.319,287.075 447.319,289.408 450.5,291.5C 449.5,291.5 448.5,291.5 447.5,291.5C 446.71,290.599 445.71,289.932 444.5,289.5C 442.59,287.438 440.257,285.938 437.5,285C 435.658,283.089 433.991,281.089 432.5,279C 429.319,278.403 426.319,278.903 423.5,280.5C 423.5,279.833 423.167,279.5 422.5,279.5C 421.502,311.996 421.168,344.662 421.5,377.5C 420.833,377.5 420.167,377.5 419.5,377.5C 420.492,344.907 420.826,312.24 420.5,279.5C 422.1,278.356 423.767,277.189 425.5,276C 422.192,275.9 419.359,277.067 417,279.5C 416.832,311.003 416.332,342.336 415.5,373.5C 415.667,341.832 415.5,310.165 415,278.5C 414.768,279.737 414.268,280.737 413.5,281.5C 413.5,280.167 413.5,278.833 413.5,277.5C 415.009,276.696 416.343,275.529 417.5,274C 421.034,273.741 423.7,272.241 425.5,269.5 Z"/></g>
<g><path style="opacity:1" fill="#ab681d" d="M 452.5,267.5 C 453.568,266.566 454.901,266.232 456.5,266.5C 456.5,275.5 456.5,284.5 456.5,293.5C 455.833,293.5 455.167,293.5 454.5,293.5C 453.5,293.167 452.833,292.5 452.5,291.5C 453.496,291.414 454.329,291.748 455,292.5C 455.5,284.173 455.666,275.84 455.5,267.5C 454.5,267.5 453.5,267.5 452.5,267.5 Z"/></g>
<g><path style="opacity:1" fill="#de9218" d="M 602.5,261.5 C 602.108,263.179 601.608,264.846 601,266.5C 597.586,271.066 594.42,275.732 591.5,280.5C 589.5,280.5 588.5,281.5 588.5,283.5C 588.167,283.5 587.833,283.5 587.5,283.5C 587.34,281.801 587.506,280.134 588,278.5C 593.891,274.757 597.724,269.423 599.5,262.5C 600.325,261.614 601.325,261.281 602.5,261.5 Z"/></g>
<g><path style="opacity:0.006" fill="#000000" d="M 413.5,277.5 C 413.5,278.833 413.5,280.167 413.5,281.5C 413.5,311.833 413.5,342.167 413.5,372.5C 412.833,372.5 412.5,372.833 412.5,373.5C 409.287,373.81 406.287,373.477 403.5,372.5C 406.167,372.5 408.833,372.5 411.5,372.5C 411.787,341.195 411.954,309.862 412,278.5C 412.383,277.944 412.883,277.611 413.5,277.5 Z"/></g>
<g><path style="opacity:0.008" fill="#000000" d="M 422.5,279.5 C 423.167,279.5 423.5,279.833 423.5,280.5C 423.487,312.799 422.82,345.133 421.5,377.5C 421.168,344.662 421.502,311.996 422.5,279.5 Z"/></g>
<g><path style="opacity:0.325" fill="#645030" d="M 591.5,280.5 C 590.833,281.833 589.833,282.833 588.5,283.5C 588.5,281.5 589.5,280.5 591.5,280.5 Z"/></g>
<g><path style="opacity:1" fill="#b27121" d="M 461.5,263.5 C 461.833,263.5 462.167,263.5 462.5,263.5C 462.189,274.914 462.523,286.248 463.5,297.5C 461.522,286.549 460.856,275.216 461.5,263.5 Z"/></g>
<g><path style="opacity:1" fill="#9d5812" d="M 466.5,261.5 C 466.5,260.833 466.833,260.5 467.5,260.5C 468.5,260.5 469.5,260.5 470.5,260.5C 470.5,273.167 470.5,285.833 470.5,298.5C 470.167,298.5 469.833,298.5 469.5,298.5C 469.5,286.167 469.5,273.833 469.5,261.5C 468.5,261.5 467.5,261.5 466.5,261.5 Z"/></g>
<g><path style="opacity:1" fill="#0f0f0f" d="M 420.5,279.5 C 419.668,311.331 419.168,343.331 419,375.5C 402.167,376.827 385.333,376.827 368.5,375.5C 383.833,374.833 399.167,374.167 414.5,373.5C 414.833,373.5 415.167,373.5 415.5,373.5C 416.332,342.336 416.832,311.003 417,279.5C 419.359,277.067 422.192,275.9 425.5,276C 423.767,277.189 422.1,278.356 420.5,279.5 Z"/></g>
<g><path style="opacity:1" fill="#df9925" d="M 586.5,283.5 C 579.921,289.424 572.588,294.09 564.5,297.5C 562.883,298.038 561.216,298.371 559.5,298.5C 561.444,297.072 563.111,295.239 564.5,293C 571.139,293.813 575.472,291.146 577.5,285C 580.475,285.225 583.475,284.725 586.5,283.5 Z"/></g>
<g><path style="opacity:0.004" fill="#000000" d="M 444.5,289.5 C 443.833,290.167 443.833,290.167 444.5,289.5 Z"/></g>
<g><path style="opacity:0.996" fill="#bd8836" d="M 475.5,256.5 C 476.496,271.324 476.829,286.324 476.5,301.5C 481.57,301.685 486.57,302.352 491.5,303.5C 494.5,304.167 497.5,304.833 500.5,305.5C 498.167,305.5 495.833,305.5 493.5,305.5C 492.5,305.5 491.5,305.5 490.5,305.5C 488.343,304.593 486.01,303.927 483.5,303.5C 482.167,303.5 480.833,303.5 479.5,303.5C 477.781,302.978 476.448,301.978 475.5,300.5C 475.5,285.833 475.5,271.167 475.5,256.5 Z"/></g>
<g><path style="opacity:0.004" fill="#000000" d="M 608.5,302.5 C 609.833,303.167 609.833,303.167 608.5,302.5 Z"/></g>
<g><path style="opacity:0.184" fill="#47402a" d="M 483.5,303.5 C 486.01,303.927 488.343,304.593 490.5,305.5C 488.473,305.662 486.473,305.495 484.5,305C 483.944,304.617 483.611,304.117 483.5,303.5 Z"/></g>
<g><path style="opacity:0.994" fill="#e59d26" d="M 491.5,303.5 C 507.164,304.734 522.831,304.734 538.5,303.5C 538.5,303.833 538.5,304.167 538.5,304.5C 537.209,304.263 536.209,304.596 535.5,305.5C 534.833,305.5 534.167,305.5 533.5,305.5C 532.5,305.5 531.5,305.5 530.5,305.5C 520.5,305.5 510.5,305.5 500.5,305.5C 497.5,304.833 494.5,304.167 491.5,303.5 Z"/></g>
<g><path style="opacity:0.945" fill="#bfb365" d="M 493.5,305.5 C 495.833,305.5 498.167,305.5 500.5,305.5C 510.5,305.5 520.5,305.5 530.5,305.5C 519.012,306.495 507.345,306.828 495.5,306.5C 494.075,308.031 493.409,307.698 493.5,305.5 Z"/></g>
<g><path style="opacity:0.008" fill="#030302" d="M 533.5,305.5 C 534.167,305.5 534.833,305.5 535.5,305.5C 537.167,305.5 538.833,305.5 540.5,305.5C 540.5,307.167 540.5,308.833 540.5,310.5C 538.167,310.5 535.833,310.5 533.5,310.5C 532.167,309.167 530.833,309.167 529.5,310.5C 529.167,310.5 528.833,310.5 528.5,310.5C 524.3,309.78 519.967,309.114 515.5,308.5C 510.22,309.618 504.887,309.784 499.5,309C 503.688,308.824 507.688,308.324 511.5,307.5C 513.5,307.5 515.5,307.5 517.5,307.5C 522.833,308.833 528.167,308.833 533.5,307.5C 533.5,306.833 533.5,306.167 533.5,305.5 Z M 534.5,307.5 C 535.721,306.535 537.054,306.702 538.5,308C 537.072,308.579 535.738,308.412 534.5,307.5 Z"/></g>
<g><path style="opacity:0.212" fill="#544e41" d="M 530.5,305.5 C 531.5,305.5 532.5,305.5 533.5,305.5C 533.5,306.167 533.5,306.833 533.5,307.5C 528.167,307.5 522.833,307.5 517.5,307.5C 515.5,307.5 513.5,307.5 511.5,307.5C 506.167,307.5 500.833,307.5 495.5,307.5C 495.5,307.167 495.5,306.833 495.5,306.5C 507.345,306.828 519.012,306.495 530.5,305.5 Z"/></g>
<g><path style="opacity:0.999" fill="#151211" d="M 545.5,249.5 C 545.833,249.5 546.167,249.5 546.5,249.5C 546.167,267.512 546.5,285.512 547.5,303.5C 548.739,303.058 549.739,302.391 550.5,301.5C 553.785,301.072 556.785,300.072 559.5,298.5C 561.216,298.371 562.883,298.038 564.5,297.5C 566.167,297.5 567.833,297.5 569.5,297.5C 567.117,299.17 564.451,300.504 561.5,301.5C 560.197,300.282 559.197,300.615 558.5,302.5C 557.833,302.167 557.167,301.833 556.5,301.5C 556.167,302.167 555.833,302.833 555.5,303.5C 554.284,302.998 553.117,302.665 552,302.5C 551.167,304 550,305.167 548.5,306C 549.191,307.067 549.691,308.234 550,309.5C 553.716,308.296 557.55,307.462 561.5,307C 578.446,305.723 595.279,304.556 612,303.5C 612.615,305.116 613.615,306.449 615,307.5C 614.863,328.598 615.363,349.765 616.5,371C 615.584,371.278 614.918,371.778 614.5,372.5C 614.167,372.5 613.833,372.5 613.5,372.5C 613.988,350.349 613.488,328.349 612,306.5C 611.17,329.004 611.337,351.337 612.5,373.5C 627.658,374.496 642.991,374.83 658.5,374.5C 642.2,376.485 625.534,377.152 608.5,376.5C 607.511,353.908 607.178,331.242 607.5,308.5C 605.833,308.5 604.167,308.5 602.5,308.5C 588.465,309.11 574.465,310.11 560.5,311.5C 555.767,310.81 550.934,310.144 546,309.5C 545.5,289.503 545.333,269.503 545.5,249.5 Z"/></g>
<g><path style="opacity:0.686" fill="#312f2c" d="M 541.5,303.5 C 541.833,303.5 542.167,303.5 542.5,303.5C 543.265,306.096 543.599,308.763 543.5,311.5C 538.833,311.5 534.167,311.5 529.5,311.5C 528.833,311.5 528.167,311.5 527.5,311.5C 527.5,310.833 527.833,310.5 528.5,310.5C 528.833,310.5 529.167,310.5 529.5,310.5C 530.833,310.5 532.167,310.5 533.5,310.5C 535.833,310.5 538.167,310.5 540.5,310.5C 540.5,308.833 540.5,307.167 540.5,305.5C 538.833,305.5 537.167,305.5 535.5,305.5C 536.209,304.596 537.209,304.263 538.5,304.5C 539.791,304.737 540.791,304.404 541.5,303.5 Z"/></g>
<g><path style="opacity:0.036" fill="#141414" d="M 479.5,303.5 C 480.833,303.5 482.167,303.5 483.5,303.5C 483.611,304.117 483.944,304.617 484.5,305C 486.473,305.495 488.473,305.662 490.5,305.5C 491.5,305.5 492.5,305.5 493.5,305.5C 493.409,307.698 494.075,308.031 495.5,306.5C 495.5,306.833 495.5,307.167 495.5,307.5C 495.083,308.124 494.416,308.457 493.5,308.5C 488.513,307.369 483.513,306.369 478.5,305.5C 478.5,312.5 478.5,319.5 478.5,326.5C 477.167,326.833 477.167,327.167 478.5,327.5C 479.263,330.141 479.43,332.808 479,335.5C 478.667,334.167 478.333,332.833 478,331.5C 478.582,346.468 478.582,361.468 478,376.5C 476.989,377.337 475.822,377.67 474.5,377.5C 474.783,376.711 475.283,376.044 476,375.5C 476.5,351.502 476.667,327.502 476.5,303.5C 477.5,303.5 478.5,303.5 479.5,303.5 Z"/></g>
<g><path style="opacity:0.5" fill="#2f2f2f" d="M 602.5,308.5 C 602.5,308.833 602.5,309.167 602.5,309.5C 587.528,310.976 572.528,311.809 557.5,312C 558.448,311.517 559.448,311.351 560.5,311.5C 574.465,310.11 588.465,309.11 602.5,308.5 Z"/></g>
<g><path style="opacity:0.004" fill="#060606" d="M 526.5,313.5 C 526.5,318.167 526.5,322.833 526.5,327.5C 525.504,343.325 525.17,359.325 525.5,375.5C 524.833,365.339 524.5,355.005 524.5,344.5C 524.501,333.811 525.168,323.478 526.5,313.5 Z"/></g>
<g><path style="opacity:0.946" fill="#414141" d="M 456.5,293.5 C 456.833,293.5 457.167,293.5 457.5,293.5C 457.5,321.167 457.5,348.833 457.5,376.5C 463.093,376.807 468.593,376.473 474,375.5C 474.5,350.502 474.667,325.502 474.5,300.5C 474.833,300.5 475.167,300.5 475.5,300.5C 476.448,301.978 477.781,302.978 479.5,303.5C 478.5,303.5 477.5,303.5 476.5,303.5C 476.667,327.502 476.5,351.502 476,375.5C 475.283,376.044 474.783,376.711 474.5,377.5C 474.167,377.5 473.833,377.5 473.5,377.5C 470.5,377.5 467.5,377.5 464.5,377.5C 461.833,377.5 459.167,377.5 456.5,377.5C 456.5,376.833 456.5,376.167 456.5,375.5C 456.5,348.167 456.5,320.833 456.5,293.5 Z M 462.5,327.5 C 463.895,325.946 464.561,326.279 464.5,328.5C 464.337,333.203 463.67,338.036 462.5,343C 462.364,352.447 462.698,361.947 463.5,371.5C 464.833,371.5 466.167,371.5 467.5,371.5C 467.201,357.47 467.534,343.47 468.5,329.5C 467.885,320.175 467.218,310.842 466.5,301.5C 465.284,300.998 464.117,300.665 463,300.5C 462.5,309.494 462.334,318.494 462.5,327.5 Z"/></g>
<g><path style="opacity:0.981" fill="#474746" d="M 469.5,298.5 C 469.833,298.5 470.167,298.5 470.5,298.5C 470.5,299.167 470.833,299.5 471.5,299.5C 472.157,324.523 471.49,349.189 469.5,373.5C 469.823,348.759 469.49,324.092 468.5,299.5C 469.167,299.5 469.5,299.167 469.5,298.5 Z"/></g>
<g><path style="opacity:0.004" fill="#000000" d="M 478.5,326.5 C 479.833,327.167 479.833,327.167 478.5,326.5 Z"/></g>
<g><path style="opacity:0.012" fill="#030202" d="M 447.5,291.5 C 448.5,291.5 449.5,291.5 450.5,291.5C 451.167,291.5 451.833,291.5 452.5,291.5C 452.833,292.5 453.5,293.167 454.5,293.5C 455.158,320.931 455.825,348.264 456.5,375.5C 456.5,376.167 456.5,376.833 456.5,377.5C 455.85,377.196 455.183,376.863 454.5,376.5C 453.684,370.647 453.35,364.98 453.5,359.5C 454.504,350.82 454.17,342.154 452.5,333.5C 453.523,322.179 453.69,310.845 453,299.5C 452.798,297.744 452.298,296.078 451.5,294.5C 449.739,293.965 448.406,292.965 447.5,291.5 Z"/></g>
<g><path style="opacity:0.23" fill="#252525" d="M 605.5,309.5 C 606.167,331.833 606.833,354.167 607.5,376.5C 607.5,376.833 607.5,377.167 607.5,377.5C 606.508,377.672 605.842,377.338 605.5,376.5C 605.5,354.167 605.5,331.833 605.5,309.5 Z"/></g>
<g><path style="opacity:0.977" fill="#555555" d="M 527.5,311.5 C 528.167,311.5 528.833,311.5 529.5,311.5C 528.346,332.76 528.179,354.094 529,375.5C 534.667,376.833 540.333,376.833 546,375.5C 546.333,356.833 546.667,338.167 547,319.5C 547.82,338.907 547.653,358.24 546.5,377.5C 543.5,377.5 540.5,377.5 537.5,377.5C 535.833,377.5 534.167,377.5 532.5,377.5C 530.833,377.5 529.167,377.5 527.5,377.5C 526.529,360.881 526.195,344.214 526.5,327.5C 526.5,322.833 526.5,318.167 526.5,313.5C 526.328,312.508 526.662,311.842 527.5,311.5 Z"/></g>
<g><path style="opacity:0.808" fill="#5f5f5f" d="M 602.5,309.5 C 602.5,309.167 602.5,308.833 602.5,308.5C 604.167,308.5 605.833,308.5 607.5,308.5C 607.178,331.242 607.511,353.908 608.5,376.5C 608.167,376.5 607.833,376.5 607.5,376.5C 606.833,354.167 606.167,331.833 605.5,309.5C 604.5,309.5 603.5,309.5 602.5,309.5 Z"/></g>
<g><path style="opacity:0.039" fill="#303030" d="M 526.5,327.5 C 526.195,344.214 526.529,360.881 527.5,377.5C 526.5,377.167 525.833,376.5 525.5,375.5C 525.17,359.325 525.504,343.325 526.5,327.5 Z"/></g>
<g><path style="opacity:0.92" fill="#636363" d="M 415.5,373.5 C 415.167,373.5 414.833,373.5 414.5,373.5C 414.5,372.833 414.167,372.5 413.5,372.5C 413.5,342.167 413.5,311.833 413.5,281.5C 414.268,280.737 414.768,279.737 415,278.5C 415.5,310.165 415.667,341.832 415.5,373.5 Z"/></g>
<g><path style="opacity:0.799" fill="#464646" d="M 420.5,279.5 C 420.826,312.24 420.492,344.907 419.5,377.5C 415.5,377.5 411.5,377.5 407.5,377.5C 404.167,377.5 400.833,377.5 397.5,377.5C 395.5,377.5 393.5,377.5 391.5,377.5C 388.833,377.5 386.167,377.5 383.5,377.5C 380.833,377.5 378.167,377.5 375.5,377.5C 373.167,377.5 370.833,377.5 368.5,377.5C 368.5,376.833 368.5,376.167 368.5,375.5C 385.333,376.827 402.167,376.827 419,375.5C 419.168,343.331 419.668,311.331 420.5,279.5 Z"/></g>
<g><path style="opacity:0.851" fill="#505050" d="M 541.5,313.5 C 542.662,333.329 542.829,353.329 542,373.5C 541.165,353.471 540.999,333.471 541.5,313.5 Z"/></g>
<g><path style="opacity:0.496" fill="#464646" d="M 533.5,327.5 C 534.582,328.594 535.248,329.927 535.5,331.5C 533.766,337.365 533.1,343.365 533.5,349.5C 532.167,342.167 532.167,334.833 533.5,327.5 Z"/></g>
<g><path style="opacity:0.974" fill="#636363" d="M 613.5,372.5 C 613.5,373.167 613.167,373.5 612.5,373.5C 611.337,351.337 611.17,329.004 612,306.5C 613.488,328.349 613.988,350.349 613.5,372.5 Z"/></g>
<g><path style="opacity:0.605" fill="#636363" d="M 454.5,293.5 C 455.167,293.5 455.833,293.5 456.5,293.5C 456.5,320.833 456.5,348.167 456.5,375.5C 455.825,348.264 455.158,320.931 454.5,293.5 Z"/></g>
<g><path style="opacity:0.628" fill="#362c25" d="M 461.5,263.5 C 460.856,275.216 461.522,286.549 463.5,297.5C 464.995,297.989 466.329,298.655 467.5,299.5C 465.738,299.643 464.071,299.309 462.5,298.5C 461.177,308.325 461.177,317.992 462.5,327.5C 461.731,342.809 461.231,358.142 461,373.5C 460.169,336.664 460.336,299.998 461.5,263.5 Z"/></g>
<g><path style="opacity:0.897" fill="#232323" d="M 533.5,327.5 C 532.167,334.833 532.167,342.167 533.5,349.5C 533.831,357.528 533.498,365.528 532.5,373.5C 531.334,353.842 531.167,334.175 532,314.5C 532.333,314.167 532.667,313.833 533,313.5C 533.499,318.155 533.666,322.821 533.5,327.5 Z"/></g>
<g><path style="opacity:0.004" fill="#000000" d="M 453.5,359.5 C 453.631,360.239 453.464,360.906 453,361.5C 452.308,360.563 452.475,359.897 453.5,359.5 Z"/></g>
<g><path style="opacity:0.005" fill="#000000" d="M 369.5,371.5 C 381.993,370.34 394.66,370.173 407.5,371C 404.305,371.181 401.305,371.681 398.5,372.5C 390.5,372.5 382.5,372.5 374.5,372.5C 373.081,371.549 371.415,371.216 369.5,371.5 Z"/></g>
<g><path style="opacity:0.004" fill="#000000" d="M 652.5,372.5 C 651.167,372.5 649.833,372.5 648.5,372.5C 639.342,371.67 630.009,371.17 620.5,371C 633.167,370.333 645.833,370.333 658.5,371C 656.292,371.191 654.292,371.691 652.5,372.5 Z"/></g>
<g><path style="opacity:0.004" fill="#000000" d="M 659.5,371.5 C 660.833,372.167 660.833,372.167 659.5,371.5 Z"/></g>
<g><path style="opacity:0.828" fill="#2e2e2e" d="M 613.5,372.5 C 613.833,372.5 614.167,372.5 614.5,372.5C 625.833,372.5 637.167,372.5 648.5,372.5C 649.833,372.5 651.167,372.5 652.5,372.5C 654.833,372.5 657.167,372.5 659.5,372.5C 659.5,372.833 659.5,373.167 659.5,373.5C 658.833,373.5 658.5,373.833 658.5,374.5C 642.991,374.83 627.658,374.496 612.5,373.5C 613.167,373.5 613.5,373.167 613.5,372.5 Z"/></g>
<g><path style="opacity:0.925" fill="#2f2f2f" d="M 369.5,371.5 C 370.919,372.451 372.585,372.784 374.5,372.5C 382.5,372.5 390.5,372.5 398.5,372.5C 400.167,372.5 401.833,372.5 403.5,372.5C 406.287,373.477 409.287,373.81 412.5,373.5C 413.167,373.5 413.5,373.167 413.5,372.5C 414.167,372.5 414.5,372.833 414.5,373.5C 399.167,374.167 383.833,374.833 368.5,375.5C 368.5,376.167 368.5,376.833 368.5,377.5C 368.565,377.938 368.399,378.272 368,378.5C 364.892,376.545 365.059,374.712 368.5,373C 367.288,371.893 367.621,371.393 369.5,371.5 Z"/></g>
<g><path style="opacity:0.365" fill="#444444" d="M 659.5,373.5 C 660.684,374.688 660.684,375.855 659.5,377C 655.179,377.499 650.846,377.666 646.5,377.5C 640.167,377.5 633.833,377.5 627.5,377.5C 625.5,377.5 623.5,377.5 621.5,377.5C 616.833,377.5 612.167,377.5 607.5,377.5C 607.5,377.167 607.5,376.833 607.5,376.5C 607.833,376.5 608.167,376.5 608.5,376.5C 625.534,377.152 642.2,376.485 658.5,374.5C 658.5,373.833 658.833,373.5 659.5,373.5 Z"/></g>
<g><path style="opacity:0.004" fill="#000000" d="M 375.5,377.5 C 378.167,377.5 380.833,377.5 383.5,377.5C 383.5,377.833 383.5,378.167 383.5,378.5C 378.84,379.167 374.174,379.333 369.5,379C 371.708,378.809 373.708,378.309 375.5,377.5 Z"/></g>
<g><path style="opacity:0.012" fill="#000000" d="M 391.5,377.5 C 393.5,377.5 395.5,377.5 397.5,377.5C 400.833,378.833 404.167,378.833 407.5,377.5C 411.5,377.5 415.5,377.5 419.5,377.5C 419.611,378.117 419.944,378.617 420.5,379C 407.993,379.827 395.66,379.66 383.5,378.5C 386.385,378.806 389.052,378.473 391.5,377.5 Z"/></g>
<g><path style="opacity:0.008" fill="#000000" d="M 464.5,377.5 C 467.5,377.5 470.5,377.5 473.5,377.5C 473.611,378.117 473.944,378.617 474.5,379C 468.833,379.667 463.167,379.667 457.5,379C 460.036,378.814 462.369,378.314 464.5,377.5 Z"/></g>
<g><path style="opacity:0.01" fill="#000000" d="M 527.5,377.5 C 529.167,377.5 530.833,377.5 532.5,377.5C 534.167,378.833 535.833,378.833 537.5,377.5C 540.5,377.5 543.5,377.5 546.5,377.5C 546.389,378.117 546.056,378.617 545.5,379C 539.833,379.667 534.167,379.667 528.5,379C 527.944,378.617 527.611,378.117 527.5,377.5 Z"/></g>
<g><path style="opacity:0.008" fill="#010101" d="M 659.5,373.5 C 663.487,375.041 663.487,376.875 659.5,379C 642.5,379.667 625.5,379.667 608.5,379C 613.019,378.825 617.353,378.325 621.5,377.5C 623.5,377.5 625.5,377.5 627.5,377.5C 633.833,378.833 640.167,378.833 646.5,377.5C 650.846,377.666 655.179,377.499 659.5,377C 660.684,375.855 660.684,374.688 659.5,373.5 Z"/></g>
</svg>
